<svg xmlns="http://www.w3.org/2000/svg" width="25.574" height="17" viewBox="0 0 25.574 17">
  <path id="_15972340571535698998" data-name="15972340571535698998" d="M31.516,36.842a.423.423,0,0,0,.023-.131V21.566a.42.42,0,0,0-.023-.132c0-.006,0-.011-.005-.017a.425.425,0,0,0-.079-.131s0-.006,0-.008l0,0a.429.429,0,0,0-.126-.092l-.01-.006a.422.422,0,0,0-.146-.035H7.364a.427.427,0,0,0-.148.036l-.008,0a.423.423,0,0,0-.128.093l0,0s0,.005,0,.008a.427.427,0,0,0-.079.131c0,.006,0,.011-.005.017a.42.42,0,0,0-.023.132V36.712a.423.423,0,0,0,.023.133l.005.017a.428.428,0,0,0,.08.132l0,.007.006.005a.432.432,0,0,0,.045.04l.021.017a.4.4,0,0,0,.06.033l.015.008a.428.428,0,0,0,.168.035H31.11a.423.423,0,0,0,.168-.035l.023-.013a.436.436,0,0,0,.052-.029c.009-.006.016-.014.025-.02a.392.392,0,0,0,.041-.037L31.426,37s0-.006.005-.009a.427.427,0,0,0,.078-.131A.156.156,0,0,0,31.516,36.842ZM7.819,22.536l7.2,6.574-7.2,6.626Zm14.751,6.252a.408.408,0,0,0-.086.063c-.009.01-.013.024-.021.034L19.251,31.82,8.494,21.994H30.009Zm-6.92.9,3.312,3.025a.427.427,0,0,0,.577,0l3.271-2.988,7.2,6.557H8.488Zm7.794-.542,7.238-6.611V35.743Z" transform="translate(-6.464 -20.639)" stroke="#101010" stroke-width="1" opacity="0.6"/>
</svg>
