<svg xmlns="http://www.w3.org/2000/svg" width="26" height="18" viewBox="0 0 26 18">
  <g id="Page-1" transform="translate(-3 -7)">
    <g id="icon-21-eye-hidden">
      <path id="eye-hidden" d="M8.109,20.891A15.1,15.1,0,0,1,3,16,15.361,15.361,0,0,1,16,9a16.074,16.074,0,0,1,3.6.4l-.85.85A15.111,15.111,0,0,0,16,10,14.41,14.41,0,0,0,4.2,16a13.976,13.976,0,0,0,4.645,4.155l-.736.736ZM12.4,22.6A16.074,16.074,0,0,0,16,23a15.361,15.361,0,0,0,13-7,15.1,15.1,0,0,0-5.109-4.891l-.736.736A13.975,13.975,0,0,1,27.8,16,14.41,14.41,0,0,1,16,22a15.111,15.111,0,0,1-2.752-.248l-.85.85Zm7.5-7.5a4,4,0,0,1-4.8,4.8L16,19a3,3,0,0,0,3-3l.9-.9Zm-3-3a4,4,0,0,0-4.8,4.8L13,16a3,3,0,0,1,3-3l.9-.9ZM24,7,7,24l1,1L25,8,24,7Z" fill-rule="evenodd"/>
    </g>
  </g>
</svg>
